<mxfile host="app.diagrams.net" modified="2021-10-18T08:30:02.846Z" agent="5.0 (Windows NT 10.0; Win64; x64) AppleWebKit/537.36 (KHTML, like Gecko) Chrome/94.0.4606.81 Safari/537.36" etag="3PIxpmgiTizbEQ4nK7ec" version="15.5.4" type="github">
  <diagram id="DsiD0tzsdvWzEjYYOT4f" name="Page-1">
    <mxGraphModel dx="2310" dy="1950" grid="1" gridSize="10" guides="1" tooltips="1" connect="1" arrows="1" fold="1" page="1" pageScale="1" pageWidth="827" pageHeight="1169" math="0" shadow="0">
      <root>
        <mxCell id="0" />
        <mxCell id="1" parent="0" />
        <mxCell id="IJA1PmfvDwVH18fctgpT-1" value="Actor" style="shape=umlActor;verticalLabelPosition=bottom;verticalAlign=top;html=1;outlineConnect=0;" vertex="1" parent="1">
          <mxGeometry x="-190" y="-270" width="700" height="780" as="geometry" />
        </mxCell>
        <mxCell id="IJA1PmfvDwVH18fctgpT-2" value="" style="ellipse;shape=cloud;whiteSpace=wrap;html=1;" vertex="1" parent="1">
          <mxGeometry x="40" y="-230" width="120" height="80" as="geometry" />
        </mxCell>
        <mxCell id="IJA1PmfvDwVH18fctgpT-3" value="" style="endArrow=none;html=1;rounded=0;strokeWidth=4;" edge="1" parent="1">
          <mxGeometry width="50" height="50" relative="1" as="geometry">
            <mxPoint x="30" y="-100" as="sourcePoint" />
            <mxPoint x="90" y="-160" as="targetPoint" />
          </mxGeometry>
        </mxCell>
        <mxCell id="IJA1PmfvDwVH18fctgpT-4" value="" style="endArrow=none;html=1;rounded=0;strokeWidth=4;" edge="1" parent="1">
          <mxGeometry width="50" height="50" relative="1" as="geometry">
            <mxPoint x="140" y="-210" as="sourcePoint" />
            <mxPoint x="200" y="-270" as="targetPoint" />
          </mxGeometry>
        </mxCell>
        <mxCell id="IJA1PmfvDwVH18fctgpT-6" value="" style="ellipse;whiteSpace=wrap;html=1;" vertex="1" parent="1">
          <mxGeometry x="170" y="-230" width="120" height="80" as="geometry" />
        </mxCell>
        <mxCell id="IJA1PmfvDwVH18fctgpT-7" value="" style="ellipse;whiteSpace=wrap;html=1;aspect=fixed;" vertex="1" parent="1">
          <mxGeometry x="207.5" y="-212.5" width="45" height="45" as="geometry" />
        </mxCell>
        <mxCell id="IJA1PmfvDwVH18fctgpT-8" value="" style="ellipse;whiteSpace=wrap;html=1;aspect=fixed;fillColor=#000000;" vertex="1" parent="1">
          <mxGeometry x="220" y="-200" width="20" height="20" as="geometry" />
        </mxCell>
        <mxCell id="IJA1PmfvDwVH18fctgpT-9" value="" style="shape=or;whiteSpace=wrap;html=1;fillColor=#FFFFFF;rotation=-90;" vertex="1" parent="1">
          <mxGeometry x="137.5" y="-140" width="32.5" height="60" as="geometry" />
        </mxCell>
        <mxCell id="IJA1PmfvDwVH18fctgpT-10" value="" style="shape=step;perimeter=stepPerimeter;whiteSpace=wrap;html=1;fixedSize=1;fillColor=#000000;rotation=-90;" vertex="1" parent="1">
          <mxGeometry x="-31.25" y="41" width="382.5" height="255" as="geometry" />
        </mxCell>
        <mxCell id="IJA1PmfvDwVH18fctgpT-11" value="" style="shape=xor;whiteSpace=wrap;html=1;fillColor=#000000;rotation=-90;strokeColor=#000000;" vertex="1" parent="1">
          <mxGeometry x="70" y="-509" width="180" height="450" as="geometry" />
        </mxCell>
        <mxCell id="IJA1PmfvDwVH18fctgpT-13" value="" style="shape=image;html=1;verticalAlign=top;verticalLabelPosition=bottom;labelBackgroundColor=#ffffff;imageAspect=0;aspect=fixed;image=https://cdn4.iconfinder.com/data/icons/zoo-line-welcome-to-zootopia/512/parrot-128.png;strokeColor=#000000;fillColor=#000000;" vertex="1" parent="1">
          <mxGeometry x="260" y="-137" width="178" height="178" as="geometry" />
        </mxCell>
        <mxCell id="IJA1PmfvDwVH18fctgpT-15" value="" style="shape=image;html=1;verticalAlign=top;verticalLabelPosition=bottom;labelBackgroundColor=#ffffff;imageAspect=0;aspect=fixed;image=https://external-content.duckduckgo.com/iu/?u=https%3A%2F%2Fpurepng.com%2Fpublic%2Fuploads%2Fmedium%2Fpurepng.com-piratepirateact-of-robberycriminalviolenceshipboatattackerspirates-1421526962357r7moz.png&amp;f=1&amp;nofb=1;strokeColor=#000000;fillColor=#000000;imageBorder=none;strokeWidth=12;imageBackground=none;" vertex="1" parent="1">
          <mxGeometry x="115.5" y="-358" width="89" height="88" as="geometry" />
        </mxCell>
        <mxCell id="IJA1PmfvDwVH18fctgpT-16" value="" style="shape=image;html=1;verticalAlign=top;verticalLabelPosition=bottom;labelBackgroundColor=#ffffff;imageAspect=0;aspect=fixed;image=https://cdn3.iconfinder.com/data/icons/fantasy-and-role-play-game-adventure-quest/512/Sword-128.png;strokeColor=#000000;strokeWidth=12;fillColor=#000000;" vertex="1" parent="1">
          <mxGeometry x="460" y="-268" width="316" height="316" as="geometry" />
        </mxCell>
      </root>
    </mxGraphModel>
  </diagram>
</mxfile>
